<svg xmlns="http://www.w3.org/2000/svg" viewBox="0 0 24 24" id="google-translate">
  <path fill="#303c42" d="M22 4h-9.77L11 .34a.5.5 0 0 0-.5-.34H2a2 2 0 0 0-2 2v16a2 2 0 0 0 2 2h9.65L13 23.68a.5.5 0 0 0 .47.32H22a2 2 0 0 0 2-2V6a2 2 0 0 0-2-2ZM7.5 15a4.5 4.5 0 1 1 2.92-7.92.5.5 0 1 1-.65.76A3.5 3.5 0 1 0 11 11H7.5a.5.5 0 0 1 0-1h4a.5.5 0 0 1 .5.5A4.5 4.5 0 0 1 7.5 15Zm11.9-4a11.26 11.26 0 0 1-1.86 3.29 6.67 6.67 0 0 1-1.07-1.48.5.5 0 0 0-.93.38 8 8 0 0 0 1.34 1.87 8.9 8.9 0 0 1-.65.62L14.62 11ZM23 22a1 1 0 0 1-1 1h-7.4l2.77-3.17a.49.49 0 0 0 .09-.48l-.91-2.66a9.36 9.36 0 0 0 1-.89c1 1 1.93 1.91 2.12 2.08a.5.5 0 0 0 .68-.74 43.48 43.48 0 0 1-2.13-2.1 11.49 11.49 0 0 0 2.22-4h1.06a.5.5 0 0 0 0-1H18V9.5a.5.5 0 0 0-1 0v.5h-2.5a.49.49 0 0 0-.21 0l-1.72-5H22a1 1 0 0 1 1 1Z"></path>
</svg>
